<svg width="22" height="22" viewBox="0 0 22 22" fill="none" xmlns="http://www.w3.org/2000/svg">
<g id="slack">
<path id="vector" d="M19.1811 10.3133C20.2977 10.3133 21.2028 9.40811 21.2028 8.29155C21.2028 7.175 20.2976 6.26985 19.181 6.26985C18.0644 6.26985 17.1591 7.17507 17.1591 8.29173V10.3133H19.1811ZM13.5197 10.3133C14.6363 10.3133 15.5416 9.40803 15.5416 8.29138V2.63046C15.5416 1.51381 14.6363 0.608582 13.5197 0.608582C12.403 0.608582 11.4978 1.51381 11.4978 2.63046V8.29138C11.4978 9.40803 12.403 10.3133 13.5197 10.3133Z" fill="#2EB67D"/>
<path id="vector_2" d="M2.19699 11.9311C1.08043 11.9311 0.175287 12.8362 0.175287 13.9528C0.175287 15.0693 1.08052 15.9745 2.19708 15.9745C3.31373 15.9745 4.21905 15.0692 4.21905 13.9526V11.9311H2.19699ZM7.85843 11.9311C6.74178 11.9311 5.83655 12.8363 5.83655 13.9529V19.6139C5.83655 20.7305 6.74178 21.6357 7.85843 21.6357C8.97508 21.6357 9.88031 20.7305 9.88031 19.6139V13.9529C9.88031 12.8363 8.97508 11.9311 7.85843 11.9311Z" fill="#E01E5A"/>
<path id="vector_3" d="M11.498 19.6142C11.498 20.7308 12.4031 21.6359 13.5197 21.6359C14.6362 21.6359 15.5414 20.7307 15.5414 19.6141C15.5414 18.4975 14.6361 17.5922 13.5195 17.5922L11.498 17.5922L11.498 19.6142ZM11.498 13.9528C11.498 15.0694 12.4032 15.9747 13.5198 15.9747L19.1808 15.9747C20.2974 15.9747 21.2026 15.0694 21.2026 13.9528C21.2026 12.8361 20.2974 11.9309 19.1808 11.9309L13.5198 11.9309C12.4032 11.9309 11.498 12.8361 11.498 13.9528Z" fill="#ECB22E"/>
<path id="vector_4" d="M9.88009 2.6301C9.88009 1.51354 8.97494 0.608392 7.85839 0.608392C6.74183 0.608392 5.83668 1.51363 5.83668 2.63018C5.83668 3.74684 6.74191 4.65215 7.85856 4.65215L9.88009 4.65215L9.88009 2.6301ZM9.88009 8.29154C9.88009 7.17488 8.97487 6.26966 7.85821 6.26966L2.1973 6.26966C1.08064 6.26966 0.175415 7.17488 0.175415 8.29154C0.175415 9.40819 1.08064 10.3134 2.1973 10.3134L7.85821 10.3134C8.97487 10.3134 9.88009 9.40819 9.88009 8.29154Z" fill="#36C5F0"/>
</g>
</svg>
